<svg xmlns="http://www.w3.org/2000/svg" width="48" height="48" viewBox="0 0 48 48"><g><defs> <linearGradient id="telegram-linear-gradient" x1="24" y1="47" x2="24" y2="1" gradientUnits="userSpaceOnUse"> <stop offset="0" stop-color="#1d93d2"></stop> <stop offset="1" stop-color="#38b0e3"></stop> </linearGradient> </defs> <circle cx="24" cy="24" r="23" fill="url(#telegram-linear-gradient)"></circle> <path d="M16.569,25.681,19.3,33.234s.341.707.706.707,5.8-5.653,5.8-5.653l6.042-11.67L16.666,23.732Z" fill="#c8daea"></path> <path d="M20.187,27.618l-.524,5.567s-.219,1.706,1.486,0,3.338-3.021,3.338-3.021Z" fill="#a9c6d8"></path> <path d="M16.618,25.951l-5.612-1.829s-.67-.272-.455-.889c.044-.128.134-.236.4-.423,1.244-.867,23.02-8.694,23.02-8.694a1.856,1.856,0,0,1,.978-.069.532.532,0,0,1,.362.394,1.8,1.8,0,0,1,.048.495c0,.144-.019.278-.032.488-.133,2.139-4.1,18.111-4.1,18.111s-.237.934-1.088.966A1.557,1.557,0,0,1,29,34.063c-1.67-1.437-7.441-5.315-8.716-6.168a.243.243,0,0,1-.1-.171c-.018-.09.08-.2.08-.2s10.048-8.932,10.315-9.869c.021-.072-.057-.108-.162-.077-.668.246-12.237,7.551-13.514,8.358A.618.618,0,0,1,16.618,25.951Z" fill="#fff"></path></g></svg>
