<svg xmlns="http://www.w3.org/2000/svg" width="48" height="48" viewBox="0 0 48 48"><g><path d="M24 3C11.3 3 1 11.5 1 22C1 32.5 11.3 41 24 41C26 41 28.1 40.8 30.1 40.3L41.6 44.9C41.7 44.9 41.8 45 42 45C42.2 45 42.4 44.9 42.6 44.8C42.9 44.6 43 44.2 43 43.9L41.9 33.9C45.2 30.6 47 26.3 47 22C47 11.5 36.7 3 24 3Z" fill="url(#nc-ui-6-0_linear_215_16)"></path> <defs> <linearGradient id="nc-ui-6-0_linear_215_16" x1="24" y1="3" x2="24" y2="45" gradientUnits="userSpaceOnUse"> <stop stop-color="#F98E5E"></stop> <stop offset="1" stop-color="#EA6524"></stop> </linearGradient> </defs></g></svg>
