<svg xmlns="http://www.w3.org/2000/svg" width="48" height="48" viewBox="0 0 48 48"><g><path d="M42 7H12C9.239 7 7 9.239 7 12V45C7 45.552 7.446 46.001 7.999 46.001C8.234 46.001 8.461 45.919 8.641 45.769L20.362 36H42C44.761 36 47 33.761 47 31V12C47 9.239 44.761 7 42 7Z" fill="url(#nc-ui-2-0_linear_103_9)"></path><path d="M1 10C1 14.971 5.029 19 10 19C14.971 19 19 14.971 19 10C19 5.029 14.971 1 10 1C5.029 1 1 5.029 1 10Z" fill="url(#nc-ui-2-1_linear_103_9)"></path><path d="M11 5V9H15C15.552 9 16 9.448 16 10C16 10.552 15.552 11 15 11H11V15C11 15.552 10.552 16 10 16C9.448 16 9 15.552 9 15V11H5C4.448 11 4 10.552 4 10C4 9.448 4.448 9 5 9H9V5C9 4.448 9.448 4 10 4C10.552 4 11 4.448 11 5Z" fill="url(#nc-ui-2-2_linear_103_9)"></path><defs><linearGradient id="nc-ui-2-0_linear_103_9" x1="27" y1="7" x2="27" y2="46.001" gradientUnits="userSpaceOnUse"><stop stop-color="#DEF2FD"></stop><stop offset="1" stop-color="#9ED9FA"></stop></linearGradient><linearGradient id="nc-ui-2-1_linear_103_9" x1="10" y1="1" x2="10" y2="19" gradientUnits="userSpaceOnUse"><stop stop-color="#9ED9FA"></stop><stop offset="1" stop-color="#60BEF6"></stop></linearGradient><linearGradient id="nc-ui-2-2_linear_103_9" x1="10" y1="4" x2="10" y2="16" gradientUnits="userSpaceOnUse"><stop stop-color="white"></stop><stop offset="1" stop-color="#DEF2FD"></stop></linearGradient></defs></g></svg>
