<svg xmlns="http://www.w3.org/2000/svg" width="48" height="48" viewBox="0 0 48 48"><g><rect x="1" y="5" width="46" height="36" rx="1" fill="#7d5731"></rect><path d="M1,24V37H47V24Z" fill="#bf8c5a"></path><path d="M47,9H1V22H47Z" fill="#bf8c5a"></path><path d="M2,5H46a1,1,0,0,1,1,1V7a0,0,0,0,1,0,0H1A0,0,0,0,1,1,7V6A1,1,0,0,1,2,5Z" fill="#bf8c5a"></path><path d="M6,44H8.279a1,1,0,0,0,.949-.684L10,41H5v2A1,1,0,0,0,6,44Z" fill="#a2703f"></path><path d="M38.772,43.316a1,1,0,0,0,.949.684H42a1,1,0,0,0,1-1V41H38Z" fill="#a2703f"></path><path d="M1,39v1a1,1,0,0,0,1,1H46a1,1,0,0,0,1-1V39Z" fill="#bf8c5a"></path><rect x="19" y="27" width="10" height="2" rx="1" fill="#363636"></rect><rect x="19" y="12" width="10" height="2" rx="1" fill="#363636"></rect></g></svg>
