<svg xmlns="http://www.w3.org/2000/svg" width="48" height="48" viewBox="0 0 48 48"><title>dresser-2</title><g><rect x="1" y="5" width="46" height="36" rx="5" fill="#bf8c5a"></rect><rect x="3" y="7" width="42" height="32" rx="3" fill="#7d5731"></rect><path d="M5,24V36a1,1,0,0,0,1,1H42a1,1,0,0,0,1-1V24Z" fill="#bf8c5a"></path><path d="M24,32.5a2,2,0,1,1,2-2A2,2,0,0,1,24,32.5Z" fill="#363636"></path><path d="M6,9a1,1,0,0,0-1,1V22H23V9Z" fill="#bf8c5a"></path><path d="M42,9H25V22H43V10A1,1,0,0,0,42,9Z" fill="#bf8c5a"></path><path d="M14,17.5a2,2,0,1,1,2-2A2,2,0,0,1,14,17.5Z" fill="#363636"></path><path d="M34,17.5a2,2,0,1,1,2-2A2,2,0,0,1,34,17.5Z" fill="#363636"></path><path d="M40,44a1,1,0,0,0,1-1V41H39v2A1,1,0,0,0,40,44Z" fill="#c8c8c8"></path><path d="M8,44a1,1,0,0,0,1-1V41H7v2A1,1,0,0,0,8,44Z" fill="#c8c8c8"></path></g></svg>
